<?xml version="1.0" encoding="UTF-8"?>
<!-- Created with Inkscape (http://www.inkscape.org/) -->
<svg width="1600" height="1600" version="1.1" viewBox="0 0 1600 1600" xmlns="http://www.w3.org/2000/svg" xmlns:xlink="http://www.w3.org/1999/xlink">
 <defs>
  <linearGradient id="linearGradient67" x1="254.74" x2="1162.3" y1="192.74" y2="1283.7" gradientTransform="translate(-.48722 .12188)" gradientUnits="userSpaceOnUse">
   <stop stop-color="#97dfe2" offset="0"/>
   <stop stop-color="#4cc2e3" offset=".46594"/>
   <stop stop-color="#2f98df" offset="1"/>
  </linearGradient>
 </defs>
 <path d="m525.29 1424c-14.492-1.1224-37.576-5.9038-52.772-10.931-16.076-5.318-41.225-17.666-56.5-27.741-24.995-16.486-48.224-39.804-64.482-64.727-8.0895-12.401-21.434-40.492-26.365-55.5-2.4397-7.425-5.5748-19.35-6.9668-26.5-1.392-7.15-2.88-14.35-3.3065-16s-1.0238-206.7-1.3272-455.67c-0.30346-248.97-0.77675-452.88-1.0518-453.13-0.275-0.2556-9.1731-0.886-19.773-1.4008l-19.273-0.9361-9.4921-4.8066c-16.069-8.1372-25.487-20.041-28.976-36.628-2.0244-9.6236-2.0122-38.241 0.0205-48.115 4.3404-21.085 19.955-37.706 41.994-44.698 4.5168-1.4332 37.906-1.6164 345.5-1.8964 232.57-0.2117 345.24 0.026 355.47 0.7489 30.061 2.1267 57.594 9.5879 85.034 23.043 33.776 16.562 58.468 36.358 81.685 65.487 19.752 24.782 37.619 63.966 44.231 97 4.7041 23.503 4.7079 23.642 4.3878 162-0.2877 124.37-0.3949 131.17-2.1193 134.33-1.1239 2.0597-3.4112 4.0527-6 5.2281-3.817 1.733-6.8569 1.8994-34.684 1.8994s-30.867-0.1664-34.684-1.8994c-7.7951-3.5391-7.7774-3.4383-8.1014-46.057-0.1568-20.625-0.6561-81.6-1.1096-135.5l-0.8246-98-2.5772-10c-7.1069-27.576-18.049-46.8-38.601-67.822-20.468-20.936-41.883-32.956-72.103-40.472l-10.5-2.6114-153-0.5472c-84.15-0.301-218.81-0.4178-299.23-0.2596l-146.23 0.2877 4.4195 8.2123c6.1498 11.428 8.0697 16.768 9.9312 27.624 1.4633 8.534 1.6331 45.127 1.821 392.5 0.11397 210.7 0.47659 415.26 0.80581 454.59l0.59858 71.5 2.6336 10c7.3452 27.89 18.149 46.846 38.657 67.822 20.468 20.936 41.883 32.956 72.103 40.472l10.5 2.6114 153 0.5472c84.15 0.301 218.75 0.4178 299.12 0.2596l146.12-0.2875-5.8711-11.712c-7.0965-14.157-9.268-23.173-9.3236-38.712-0.047-13.206 1.3106-16.621 7.7769-19.557 3.817-1.733 6.8569-1.8995 34.684-1.8995 39.146 0 39.713 0.2002 43.042 15.206l1.2759 5.75 5.5908 0.059c3.075 0.032 11.807 0.4092 19.404 0.8377l13.813 0.779 9.4524 4.7865c16.027 8.1157 25.45 20.038 28.936 36.608 2.0244 9.6235 2.0122 38.241-0.021 48.115-4.3403 21.085-19.955 37.705-41.994 44.698-4.5223 1.435-37.92 1.599-349.5 1.7166-189.48 0.071-349.33-0.244-355.23-0.7009zm77.17-195.19c-17.589-5.9963-30.627-19.248-35.979-36.568-1.8525-5.9955-1.9622-9.4783-1.9379-61.5 0.0255-54.426 0.055-55.23 2.2615-61.702 5.9964-17.589 19.248-30.627 36.568-35.978 6.2657-1.936 11.373-1.9637 362.14-1.9637 350.77 0 355.88 0.028 362.14 1.9637 17.32 5.3516 30.572 18.389 36.568 35.978 2.2086 6.4784 2.2357 7.23 2.2357 62.058s-0.027 55.579-2.2357 62.058c-5.9963 17.589-19.248 30.627-36.568 35.978-6.2665 1.9362-11.338 1.9633-362.5 1.9379l-356.14-0.026zm513.37-234.66c-7.2286-3.2819-7.8163-5.4289-7.8163-28.557 0-23.128 0.5877-25.275 7.8163-28.557 3.817-1.733 6.8569-1.8995 34.684-1.8995 43.97 0 42.5-1.0531 42.5 30.456 0 23.128-0.5877 25.275-7.8163 28.557-3.817 1.733-6.8569 1.8995-34.684 1.8995s-30.867-0.1665-34.684-1.8995zm-613.37-96.344c-17.589-5.9963-30.627-19.248-35.978-36.568-1.8525-5.9953-1.9622-9.4782-1.9379-61.5 0.0255-54.426 0.0549-55.23 2.2615-61.702 5.9964-17.589 19.248-30.627 36.568-35.978 6.2726-1.9381 11.646-1.9633 412.5-1.9378l406.14 0.026 6.5578 2.2356c17.589 5.9964 30.627 19.248 35.978 36.568 1.8504 5.9885 1.9637 9.5173 1.9637 61.145 0 51.627-0.1133 55.156-1.9637 61.145-5.3516 17.32-18.389 30.572-35.978 36.568l-6.5578 2.2357h-813zm207.31-239.35c-0.9231-0.3903-1.25-4.5604-1.25-15.945 0-12.428-0.267-15.417-1.3775-15.417-47.177-12.453-79.615-33.209-87.743-86.327-0.6538-14.103-2.5199-11.673 32.085-11.673 21.364 0 29.079 0.318 30.327 1.25 1.5493 1.1577 2.4676 5.2314 4.3953 19.5 3.427 25.366 69.758 42.494 88.564 13.058 21.188-33.164-31.063-53.778-37.377-53.802-24.466-8.2893-51.909-17.594-73.686-32.439-24.536-18.588-35.025-34.353-35.116-63.567-0.2536-23.768 8.6142-41.677 27.031-57.5 12.038-9.5033 34.953-21.476 50.463-22.5h2.4349v-12.878c0-9.866 0.33-13.151 1.4111-14.049 1.6262-1.3497 51.863-1.1381 53.222 0.2242 0.438 0.4389 0.9779 6.6264 1.1999 13.75 0.3471 11.143 0.6314 12.953 2.0353 12.958 11.812 0.04 54.538 21.61 65.042 43.309 4.9673 8.0423 17.572 40.75 11.155 45.649-1.2081 0.6465-13.021 1.0352-31.465 1.0352-28.172 0-29.578-0.089-30.566-1.9343-5.6151-42.394-73.063-57.18-87.624-10.907-5.5685 47.379 125.41 38.45 145.62 106.21 15.286 51.238-5.8422 105.6-73.891 110.63l-0.322 14.92c-0.1772 8.2057-0.6963 15.293-1.1537 15.75-0.9043 0.903-51.373 1.5572-53.418 0.6923z" fill="url(#linearGradient67)"/>
</svg>
